<svg version="1.1" id="Layer_1" xmlns="http://www.w3.org/2000/svg" xmlns:xlink="http://www.w3.org/1999/xlink" x="0px" y="0px"
	 viewBox="0 0 16 16" style="enable-background:new 0 0 16 16;" xml:space="preserve">
<g id="XMLID_189_">
	<g id="XMLID_45_">
		<g id="XMLID_50_">
			<path id="XMLID_51_" style="fill:#FC5821;" d="M13.71,11.09c0.27-0.02,0.46,0.19,0.41,0.46l-0.46,2.52
				c-0.05,0.27-0.32,0.5-0.59,0.51L0.5,14.98c-0.27,0.01-0.46-0.21-0.42-0.48l0.35-2.13c0.05-0.27,0.31-0.51,0.58-0.52L13.71,11.09z
				"/>
		</g>
		<g id="XMLID_48_">
			<path id="XMLID_49_" style="fill:#F73826;" d="M14.62,6.21c0.27-0.03,0.45,0.16,0.4,0.43l-0.46,2.44
				c-0.05,0.27-0.32,0.51-0.59,0.53L1.24,10.65c-0.27,0.02-0.46-0.18-0.41-0.45l0.33-1.78C1.2,8.15,1.47,7.9,1.74,7.86L14.62,6.21z"
				/>
		</g>
		<g id="XMLID_46_">
			<path id="XMLID_47_" style="fill:#F2182B;" d="M15.51,1.11c0.27-0.06,0.45,0.12,0.41,0.39l-0.45,2.65
				c-0.05,0.27-0.31,0.53-0.58,0.57L1.96,6.64c-0.27,0.04-0.45-0.15-0.4-0.42l0.31-1.71c0.05-0.27,0.31-0.54,0.58-0.6L15.51,1.11z"
				/>
		</g>
	</g>
</g>
</svg>
